<?xml version="1.0" encoding="utf-8"?>
<!-- Generator: $$$/GeneralStr/196=Adobe Illustrator 27.6.0, SVG Export Plug-In . SVG Version: 6.00 Build 0)  -->
<svg version="1.1" id="图层_1" xmlns="http://www.w3.org/2000/svg" xmlns:xlink="http://www.w3.org/1999/xlink" x="0px" y="0px"
	 viewBox="0 0 24 24" style="enable-background:new 0 0 24 24;" xml:space="preserve">
<path d="M12,22C6.5,22,2,17.5,2,12C2,6.5,6.5,2,12,2c5.5,0,10,4.5,10,10C22,17.5,17.5,22,12,22z M12,20c4.4,0,8-3.6,8-8
	c0-4.4-3.6-8-8-8c-4.4,0-8,3.6-8,8C4,16.4,7.6,20,12,20z M11,15h2v2h-2V15z M13,13.4V14h-2v-1.5c0-0.6,0.4-1,1-1
	c0.8,0,1.5-0.7,1.5-1.5c0-0.8-0.7-1.5-1.5-1.5c-0.7,0-1.3,0.5-1.5,1.2l-2-0.4c0.3-1.6,1.7-2.8,3.4-2.8c1.9,0,3.5,1.6,3.5,3.5
	C15.5,11.6,14.4,12.9,13,13.4z"/>
<polygon points="6.3,0 0,0 0,6.3 "/>
<polygon points="0,17.7 0,24 6.3,24 "/>
<polygon points="24,17.7 24,24 17.7,24 "/>
<polygon points="17.7,0 24,0 24,6.3 "/>
</svg>
