<?xml version="1.0" encoding="utf-8"?>
<!-- Generator: $$$/GeneralStr/196=Adobe Illustrator 27.6.0, SVG Export Plug-In . SVG Version: 6.00 Build 0)  -->
<svg version="1.1" id="图层_1" xmlns="http://www.w3.org/2000/svg" xmlns:xlink="http://www.w3.org/1999/xlink" x="0px" y="0px"
	 viewBox="0 0 24 24" style="enable-background:new 0 0 24 24;" xml:space="preserve">
<style type="text/css">
	.st0{fill:none;}
</style>
<path d="M7.4,13.5V3h8v2h-6v12c0,2.2-1.8,4-4,4c-2.2,0-4-1.8-4-4s1.8-4,4-4C6.1,13,6.8,13.2,7.4,13.5z M5.4,19c1.1,0,2-0.9,2-2
	s-0.9-2-2-2c-1.1,0-2,0.9-2,2S4.3,19,5.4,19z"/>
<g>
	<rect x="9.1" y="6" class="st0" width="14.2" height="13.7"/>
	<path d="M19.6,8.5V10h-5.3v2h2.7c0.5,0,1,0,1.3,0.1c0.3,0.1,0.6,0.2,0.8,0.4c0.6,0.5,0.9,1.1,0.9,2c0,1.1-0.5,1.9-1.4,2.3
		c-0.5,0.2-1.3,0.3-2.4,0.3h-3.8v-1.5h3.8c0.5,0,0.9,0,1.2-0.1c0.2-0.1,0.3-0.2,0.4-0.3C18,15,18,14.8,18,14.6
		c0-0.2-0.1-0.5-0.2-0.6c-0.1-0.2-0.3-0.3-0.4-0.3c-0.1,0-0.5-0.1-1.1-0.1h-3.8v-5H19.6z"/>
</g>
</svg>
