<?xml version="1.0" encoding="utf-8"?>
<!-- Generator: $$$/GeneralStr/196=Adobe Illustrator 27.6.0, SVG Export Plug-In . SVG Version: 6.00 Build 0)  -->
<svg version="1.1" id="图层_1" xmlns="http://www.w3.org/2000/svg" xmlns:xlink="http://www.w3.org/1999/xlink" x="0px" y="0px"
	 viewBox="0 0 24 24" style="enable-background:new 0 0 24 24;" xml:space="preserve">
<style type="text/css">
	.st0{fill:none;}
</style>
<g>
	<rect x="0.5" y="4.1" class="st0" width="23" height="13.7"/>
	<path d="M5.8,15h5.6v1.5H3.9v-2.3c0-1,0.2-1.7,0.7-2.2c0.2-0.2,0.5-0.4,0.8-0.5c0.3-0.1,0.7-0.1,1.3-0.1h1.4c0.5,0,0.8-0.1,1-0.2
		c0.3-0.2,0.5-0.4,0.5-0.8c0-0.4-0.1-0.7-0.4-0.9C9,9.5,8.6,9.4,8.1,9.4H4.1V7.9h4.4c1.1,0,1.9,0.2,2.3,0.6c0.3,0.2,0.5,0.5,0.6,0.8
		s0.2,0.7,0.2,1.1c0,0.5-0.1,0.9-0.3,1.3c-0.2,0.4-0.4,0.7-0.7,0.8c-0.4,0.3-1.1,0.4-2,0.4H7.4c-0.4,0-0.8,0-1,0.1S6.1,13.2,6,13.3
		c-0.1,0.1-0.2,0.4-0.2,0.9V15z"/>
	<path d="M14.7,7.9v8.6h-1.8V7.9H14.7z M14.8,12.1l3.3-4.3h2.4l-3.6,4.3l3.4,4.4h-2.4L14.8,12.1z"/>
</g>
</svg>
