<?xml version="1.0" encoding="utf-8"?>
<!-- Generator: $$$/GeneralStr/196=Adobe Illustrator 27.6.0, SVG Export Plug-In . SVG Version: 6.00 Build 0)  -->
<svg version="1.1" id="图层_1" xmlns="http://www.w3.org/2000/svg" xmlns:xlink="http://www.w3.org/1999/xlink" x="0px" y="0px"
	 viewBox="0 0 24 24" style="enable-background:new 0 0 24 24;" xml:space="preserve">
<style type="text/css">
	.st0{fill:none;}
</style>
<path d="M7.4,13.5V3h8v2h-6v12c0,2.2-1.8,4-4,4c-2.2,0-4-1.8-4-4s1.8-4,4-4C6.1,13,6.8,13.2,7.4,13.5z M5.4,19c1.1,0,2-0.9,2-2
	s-0.9-2-2-2c-1.1,0-2,0.9-2,2S4.3,19,5.4,19z"/>
<g>
	<rect x="9.1" y="6" class="st0" width="14.2" height="13.7"/>
	<path d="M12.6,17.1v-1.5h3.7c0.5,0,0.9-0.1,1-0.2c0.2-0.2,0.3-0.4,0.3-0.8c0-0.4-0.1-0.7-0.4-0.9c-0.2-0.1-0.5-0.2-0.9-0.2h-2.9V12
		h2.9c0.5,0,0.9-0.1,1.1-0.2c0.2-0.2,0.3-0.4,0.3-0.8c0-0.4-0.1-0.7-0.4-0.8c-0.1-0.1-0.2-0.1-0.3-0.1s-0.3,0-0.6,0h-3.7V8.5h4
		c0.6,0,0.9,0,1.1,0c0.2,0,0.3,0.1,0.5,0.1c0.4,0.2,0.8,0.5,1.1,0.9c0.3,0.4,0.4,0.8,0.4,1.3c0,0.8-0.4,1.4-1.2,1.9
		c0.8,0.5,1.2,1.2,1.2,2.1c0,0.8-0.3,1.4-0.9,1.8c-0.3,0.2-0.6,0.3-0.9,0.4c-0.3,0.1-0.8,0.1-1.5,0.1H12.6z"/>
</g>
</svg>
