<?xml version="1.0" encoding="utf-8"?>
<!-- Generator: $$$/GeneralStr/196=Adobe Illustrator 27.6.0, SVG Export Plug-In . SVG Version: 6.00 Build 0)  -->
<svg version="1.1" id="图层_1" xmlns="http://www.w3.org/2000/svg" xmlns:xlink="http://www.w3.org/1999/xlink" x="0px" y="0px"
	 viewBox="0 0 24 24" style="enable-background:new 0 0 24 24;" xml:space="preserve">
<path d="M16,2H4C3.5,2,3,2.4,3,3v18c0,0.5,0.4,1,1,1h16c0.5,0,1-0.5,1-1V7L16,2z M19,20H5V4h10v4h4V20z"/>
<g>
	<path d="M8.2,10.8H5.7v-0.7h3.5v0.7l-2.4,2.6h2.4v0.7H5.7v-0.7L8.2,10.8z"/>
	<path d="M10.8,12l-1.3-2h1l0.8,1.3l0.9-1.3h1l-1.4,2l1.4,2h-1l-0.9-1.4l-0.9,1.4h-1L10.8,12z"/>
	<path d="M14.8,10.1l1,3.1l1-3.1h1.2v4h-0.8v-3l-1,3h-0.9l-1-3v3h-0.8v-4H14.8z"/>
</g>
</svg>
