<?xml version="1.0" encoding="utf-8"?>
<!-- Generator: $$$/GeneralStr/196=Adobe Illustrator 27.6.0, SVG Export Plug-In . SVG Version: 6.00 Build 0)  -->
<svg version="1.1" id="图层_1" xmlns="http://www.w3.org/2000/svg" xmlns:xlink="http://www.w3.org/1999/xlink" x="0px" y="0px"
	 viewBox="0 0 24 24" style="enable-background:new 0 0 24 24;" xml:space="preserve">
<polygon points="13,12 17,12 17,14 11,14 11,7 13,7 "/>
<path d="M22,12c0,1.1-0.2,2.2-0.5,3.2l-1.9-0.7c0.3-0.8,0.4-1.6,0.4-2.5c0-4.4-3.6-8-8-8s-8,3.6-8,8c0,1.7,0.5,3.3,1.4,4.5l-1.5,1.3
	C2.7,16.2,2,14.2,2,12C2,6.5,6.5,2,12,2S22,6.5,22,12z"/>
<g>
	<path d="M6,16.5h5.9c0.5,0,0.9,0,1.2,0.1c0.3,0.1,0.5,0.2,0.7,0.4c0.4,0.4,0.5,0.9,0.5,1.6v3.7h-1.6v-3.5c0-0.3,0-0.5,0-0.6
		c0-0.1-0.1-0.2-0.2-0.3c-0.2-0.2-0.4-0.2-0.8-0.2h-0.9v4.6H9.3v-4.6H7.6v4.6H6V16.5z"/>
	<path d="M17.1,17.9v1.6h-1.5v-1.6H17.1z M17.1,20.7v1.6h-1.5v-1.6H17.1z"/>
	<path d="M23.6,16.5v1.2h-2.8c-0.3,0-0.5,0-0.6,0c-0.2,0.1-0.3,0.2-0.3,0.5c0,0.2,0.1,0.4,0.3,0.5c0.1,0.1,0.4,0.1,0.8,0.1h0.9
		c0.6,0,1.1,0.1,1.4,0.4c0.4,0.3,0.6,0.7,0.6,1.3c0,0.4-0.1,0.8-0.4,1.2c-0.2,0.3-0.4,0.5-0.6,0.6s-0.7,0.1-1.3,0.1h-3.3v-1.2h2.9
		c0.4,0,0.6,0,0.7,0c0.3,0,0.4-0.2,0.4-0.5c0-0.2-0.1-0.4-0.3-0.5c-0.1,0-0.3-0.1-0.7-0.1h-1c-0.4,0-0.7,0-0.9-0.1s-0.4-0.1-0.6-0.3
		c-0.2-0.2-0.4-0.4-0.5-0.6c-0.1-0.3-0.2-0.6-0.2-0.9c0-0.6,0.2-1,0.6-1.4c0.3-0.2,0.7-0.3,1.3-0.3H23.6z"/>
</g>
</svg>
