<?xml version="1.0" encoding="utf-8"?>
<!-- Generator: $$$/GeneralStr/196=Adobe Illustrator 27.6.0, SVG Export Plug-In . SVG Version: 6.00 Build 0)  -->
<svg version="1.1" id="图层_1" xmlns="http://www.w3.org/2000/svg" xmlns:xlink="http://www.w3.org/1999/xlink" x="0px" y="0px"
	 viewBox="0 0 24 24" style="enable-background:new 0 0 24 24;" xml:space="preserve">
<path d="M16,2H4C3.5,2,3,2.4,3,3v18c0,0.5,0.4,1,1,1h16c0.5,0,1-0.5,1-1V7L16,2z M19,20H5V4h10v4h4V20z"/>
<g>
	<path d="M7.1,9.9v5.1H6V9.9H7.1z"/>
	<path d="M12.6,10.6l-1.4,4.3h-0.9l-1.3-4.3l0,0v4.3h-1V9.9h1.8l1.1,3.7h0l1.1-3.7h1.7v5.1h-1V10.6L12.6,10.6z"/>
	<path d="M14.5,14.9V9.9h1.7c1.7,0,2.5,0.9,2.5,2.5c0,1.7-0.9,2.5-2.5,2.5H14.5z M15.6,10.7v3.4h0.6c1,0,1.5-0.5,1.5-1.7
		c0-1.1-0.5-1.7-1.5-1.7H15.6z"/>
</g>
</svg>
