<?xml version="1.0" encoding="utf-8"?>
<!-- Generator: $$$/GeneralStr/196=Adobe Illustrator 27.6.0, SVG Export Plug-In . SVG Version: 6.00 Build 0)  -->
<svg version="1.1" id="图层_1" xmlns="http://www.w3.org/2000/svg" xmlns:xlink="http://www.w3.org/1999/xlink" x="0px" y="0px"
	 viewBox="0 0 24 24" style="enable-background:new 0 0 24 24;" xml:space="preserve">
<style type="text/css">
	.st0{fill:none;}
</style>
<g>
	<rect x="0.5" y="4.1" class="st0" width="23" height="13.7"/>
	<path d="M4.2,16.5V15h3.7c0.5,0,0.9-0.1,1-0.2c0.2-0.2,0.3-0.4,0.3-0.8c0-0.4-0.1-0.7-0.4-0.9c-0.2-0.1-0.5-0.2-0.9-0.2H5v-1.5h2.9
		c0.5,0,0.9-0.1,1.1-0.2c0.2-0.2,0.3-0.4,0.3-0.8c0-0.4-0.1-0.7-0.4-0.8C8.7,9.5,8.6,9.4,8.5,9.4s-0.3,0-0.6,0H4.2V7.9h4
		c0.6,0,0.9,0,1.1,0C9.4,7.9,9.6,8,9.8,8c0.4,0.2,0.8,0.5,1.1,0.9c0.3,0.4,0.4,0.8,0.4,1.3c0,0.8-0.4,1.4-1.2,1.9
		c0.8,0.5,1.2,1.2,1.2,2.1c0,0.8-0.3,1.4-0.9,1.8c-0.3,0.2-0.6,0.3-0.9,0.4c-0.3,0.1-0.8,0.1-1.5,0.1H4.2z"/>
	<path d="M14.5,7.9v8.6h-1.8V7.9H14.5z M14.5,12.1l3.3-4.3h2.4l-3.6,4.3l3.4,4.4h-2.4L14.5,12.1z"/>
</g>
</svg>
