<?xml version="1.0" encoding="utf-8"?>
<!-- Generator: $$$/GeneralStr/196=Adobe Illustrator 27.6.0, SVG Export Plug-In . SVG Version: 6.00 Build 0)  -->
<svg version="1.1" id="图层_1" xmlns="http://www.w3.org/2000/svg" xmlns:xlink="http://www.w3.org/1999/xlink" x="0px" y="0px"
	 viewBox="0 0 24 24" style="enable-background:new 0 0 24 24;" xml:space="preserve">
<style type="text/css">
	.st0{fill:none;}
</style>
<path d="M7.4,13.5V3h8v2h-6v12c0,2.2-1.8,4-4,4c-2.2,0-4-1.8-4-4s1.8-4,4-4C6.1,13,6.8,13.2,7.4,13.5z M5.4,19c1.1,0,2-0.9,2-2
	s-0.9-2-2-2c-1.1,0-2,0.9-2,2S4.3,19,5.4,19z"/>
<g>
	<rect x="9.1" y="6" class="st0" width="14.2" height="13.7"/>
	<path d="M11.9,15.6v-1.8l4.9-5.3h2.4v5.6h1.1v1.5h-1.1v1.5h-1.8v-1.5H11.9z M14,14.1h3.4v-3.7L14,14.1z"/>
</g>
</svg>
