<?xml version="1.0" encoding="utf-8"?>
<!-- Generator: Adobe Illustrator 27.0.0, SVG Export Plug-In . SVG Version: 6.00 Build 0)  -->
<svg version="1.1" xmlns="http://www.w3.org/2000/svg" xmlns:xlink="http://www.w3.org/1999/xlink" x="0px" y="0px"
	 viewBox="0 0 100 100" style="enable-background:new 0 0 100 100;" xml:space="preserve">
<style type="text/css">
	.st0{display:none;}
	.st1{display:inline;}
	.st2{fill:#FAD5D7;}
	.st3{fill:#FFFFFF;}
</style>
<g id="参考" class="st0">
</g>
<g id="背景" class="st0">
	<rect x="-9.67" y="-9.67" class="st1" width="119.33" height="119.33"/>
</g>
<g id="边框">
	<path class="st2" d="M11.62,47.17c-1.57,1.56-1.57,4.1,0,5.66l4.09,4.09C15.89,57.1,16,57.36,16,57.62v8.35
		c0,0.89-1.08,1.34-1.71,0.71L3.27,55.66c-3.12-3.13-3.12-8.19,0-11.32l11.02-11.02c0.63-0.63,1.71-0.18,1.71,0.71v8.35
		c0,0.27-0.11,0.52-0.29,0.71L11.62,47.17z"/>
	<path class="st2" d="M70.23,80.75c0.39,0.39,0.39,1.02,0,1.41L55.66,96.73c-3.13,3.12-8.19,3.12-11.32,0L30.32,82.71
		c-0.39-0.39-0.39-1.02,0-1.41l4.18-4.18c0.39-0.39,1.02-0.39,1.41,0l11.26,11.26c1.56,1.57,4.1,1.57,5.66,0l11.81-11.8
		c0.39-0.39,1.02-0.39,1.41,0L70.23,80.75z"/>
	<path class="st2" d="M96.73,55.66L85.71,66.68C85.08,67.31,84,66.87,84,65.98v-8.35c0-0.27,0.11-0.52,0.29-0.71l4.09-4.09
		c1.57-1.56,1.57-4.1,0-5.66l-4.09-4.09C84.11,42.9,84,42.64,84,42.38v-8.35c0-0.89,1.08-1.34,1.71-0.71l11.02,11.02
		C99.85,47.47,99.85,52.53,96.73,55.66z"/>
	<path class="st2" d="M69.68,18.71l-4.18,4.18c-0.39,0.39-1.02,0.39-1.41,0L52.83,11.62c-1.56-1.57-4.1-1.57-5.66,0l-11.8,11.81
		c-0.39,0.39-1.02,0.39-1.41,0l-4.18-4.18c-0.39-0.39-0.39-1.02,0-1.41L44.34,3.27c3.13-3.12,8.19-3.12,11.32,0l14.02,14.02
		C70.07,17.68,70.07,18.32,69.68,18.71z"/>
</g>
<g id="本体">
	<path class="st3" d="M32,25v44.18c0,0.66-0.38,0.82-0.85,0.35l-3.47-3.47c-1.48-1.48-3.88-1.48-5.36,0l-3.47,3.47
		C18.38,70.01,18,69.85,18,69.18V25c0-0.42,0.16-0.84,0.49-1.17l5.34-5.34c0.65-0.65,1.69-0.65,2.34,0l5.34,5.34
		C31.84,24.16,32,24.58,32,25z"/>
	<path class="st2" d="M32.44,76.34l-6.1,6.1c-0.74,0.74-1.94,0.74-2.68,0l-6.1-6.1c-0.74-0.74-0.74-1.94,0-2.68l6.1-6.1
		c0.74-0.74,1.94-0.74,2.68,0l6.1,6.1C33.19,74.4,33.19,75.6,32.44,76.34z"/>
	<path class="st3" d="M81.15,30.47c0.47-0.47,0.85-0.31,0.85,0.35V75c0,0.42-0.16,0.84-0.49,1.17l-5.34,5.34
		c-0.65,0.65-1.69,0.65-2.34,0l-5.34-5.34C68.16,75.84,68,75.42,68,75V30.82c0-0.66,0.38-0.82,0.85-0.35l3.47,3.47
		c1.48,1.48,3.88,1.48,5.36,0L81.15,30.47z"/>
	<path class="st2" d="M82.44,23.66l-6.1-6.1c-0.74-0.74-1.94-0.74-2.68,0l-6.1,6.1c-0.74,0.74-0.74,1.94,0,2.68l6.1,6.1
		c0.74,0.74,1.94,0.74,2.68,0l6.1-6.1C83.19,25.6,83.19,24.4,82.44,23.66z"/>
	<path class="st3" d="M66,58.52v13.97c0,0.66-0.38,0.82-0.85,0.35l-31-31C34.07,41.76,34,41.6,34,41.48V27.52
		c0-0.66,0.38-0.82,0.85-0.35l31,31C65.93,58.24,66,58.4,66,58.52z"/>
</g>
</svg>
