<?xml version="1.0" encoding="utf-8"?>
<!-- Generator: $$$/GeneralStr/196=Adobe Illustrator 27.6.0, SVG Export Plug-In . SVG Version: 6.00 Build 0)  -->
<svg version="1.1" id="图层_1" xmlns="http://www.w3.org/2000/svg" xmlns:xlink="http://www.w3.org/1999/xlink" x="0px" y="0px"
	 viewBox="0 0 24 24" style="enable-background:new 0 0 24 24;" xml:space="preserve">
<style type="text/css">
	.st0{fill:none;}
</style>
<g>
	<rect x="0.5" y="4.1" class="st0" width="23" height="13.7"/>
	<path d="M5,12.2c-0.5-0.3-0.8-0.6-1-0.9s-0.3-0.7-0.3-1.2c0-1,0.5-1.7,1.4-2.1c0.4-0.1,1.2-0.2,2.5-0.2c0.9,0,1.6,0,2,0
		s0.7,0.1,0.9,0.2c0.5,0.2,0.8,0.5,1.1,1c0.2,0.4,0.3,0.8,0.3,1.2c0,0.9-0.4,1.6-1.3,2c0.4,0.2,0.7,0.4,0.8,0.6
		c0.3,0.4,0.5,0.8,0.5,1.4c0,0.6-0.2,1.2-0.7,1.7c-0.2,0.2-0.6,0.4-1,0.5c-0.4,0.1-1.1,0.1-2.1,0.1c-0.6,0-1.2,0-1.7,0
		c-0.8,0-1.4-0.2-1.8-0.6c-0.5-0.5-0.8-1-0.8-1.7c0-0.5,0.2-1,0.5-1.3C4.3,12.6,4.6,12.4,5,12.2z M7.7,9.3c-0.8,0-1.2,0-1.4,0.1
		c-0.4,0.1-0.6,0.5-0.6,1c0,0.6,0.2,0.9,0.6,1c0.1,0,0.6,0.1,1.4,0.1c0.7,0,1,0,1.2,0s0.2,0,0.3-0.1c0.4-0.1,0.5-0.5,0.5-0.9
		c0-0.6-0.2-0.9-0.7-1C8.9,9.3,8.4,9.3,7.7,9.3z M7.7,12.8c-0.8,0-1.2,0-1.4,0.1c-0.4,0.1-0.6,0.5-0.6,1c0,0.6,0.2,0.9,0.6,1
		c0.1,0,0.6,0.1,1.4,0.1c0.6,0,1,0,1.2,0C9,15,9.1,15,9.2,15c0.4-0.1,0.5-0.5,0.5-1c0-0.6-0.2-0.9-0.7-1.1
		C8.8,12.9,8.4,12.8,7.7,12.8z"/>
	<path d="M15,7.9v8.6h-1.8V7.9H15z M15.1,12.1l3.3-4.3h2.4l-3.6,4.3l3.4,4.4h-2.4L15.1,12.1z"/>
</g>
</svg>
