<?xml version="1.0" encoding="utf-8"?>
<!-- Generator: $$$/GeneralStr/196=Adobe Illustrator 27.6.0, SVG Export Plug-In . SVG Version: 6.00 Build 0)  -->
<svg version="1.1" id="图层_1" xmlns="http://www.w3.org/2000/svg" xmlns:xlink="http://www.w3.org/1999/xlink" x="0px" y="0px"
	 viewBox="0 0 24 24" style="enable-background:new 0 0 24 24;" xml:space="preserve">
<style type="text/css">
	.st0{fill:none;}
</style>
<g>
	<rect x="0.5" y="4.1" class="st0" width="23" height="13.7"/>
	<path d="M5.8,11.4h2.9c0.7,0,1.1,0,1.5,0.1c0.3,0.1,0.6,0.2,0.8,0.4c0.6,0.5,0.8,1.1,0.8,1.9c0,1-0.4,1.7-1.3,2.2
		c-0.5,0.3-1.3,0.5-2.4,0.5c-0.8,0-1.4-0.1-1.9-0.2c-0.5-0.1-0.9-0.4-1.2-0.7c-0.4-0.4-0.7-0.9-1-1.6c-0.2-0.6-0.3-1.2-0.3-1.9
		c0-1,0.2-1.8,0.6-2.6c0.4-0.8,1-1.3,1.8-1.5c0.4-0.1,1.1-0.2,2-0.2h3.2v1.5H8.7c-1.2,0-1.9,0.1-2.3,0.3C6.2,9.9,6,10.1,5.9,10.4
		C5.8,10.7,5.8,11,5.8,11.4z M5.8,12.9c0,0.6,0.1,1.1,0.4,1.5c0.2,0.2,0.4,0.4,0.7,0.5c0.3,0.1,0.7,0.1,1.3,0.1c0.3,0,0.6,0,0.8-0.1
		c0.2,0,0.4-0.1,0.5-0.2c0.2-0.2,0.3-0.4,0.3-0.8c0-0.4-0.1-0.7-0.4-0.9c-0.2-0.1-0.5-0.2-1-0.2H5.8z"/>
	<path d="M14.9,7.9v8.6h-1.8V7.9H14.9z M15,12.1l3.3-4.3h2.4l-3.6,4.3l3.4,4.4h-2.4L15,12.1z"/>
</g>
</svg>
